<svg xmlns="http://www.w3.org/2000/svg" version="1.1" xmlns:xlink="http://www.w3.org/1999/xlink" width="512px" height="512px"><svg width="512px" height="512px" version="1.1" xmlns="http://www.w3.org/2000/svg" xmlns:xlink="http://www.w3.org/1999/xlink" xml:space="preserve" xmlns:serif="http://www.serif.com/" style="fill-rule:evenodd;clip-rule:evenodd;stroke-linejoin:round;stroke-miterlimit:2;"><g id="SvgjsG1046" transform="matrix(2.4381,0,0,2.4381,-46.6179,-92.7041)"><rect x="19.121" y="38.023" width="210" height="210" style="fill:none;"></rect><clipPath id="SvgjsClipPath1045"><rect x="19.121" y="38.023" width="210" height="210"></rect></clipPath><g clip-path="url(#_clip1)"><g transform="matrix(1,0,0,1,-353.975,28.8803)"><g transform="matrix(1.14814,0,0,1.13249,357.359,-22.4498)"><path d="M196.655,46.448L196.655,194.795C196.655,205.029 188.459,213.338 178.364,213.338L32.04,213.338C21.945,213.338 13.749,205.029 13.749,194.795L13.749,46.448C13.749,36.214 21.945,27.905 32.04,27.905L178.364,27.905C188.459,27.905 196.655,36.214 196.655,46.448Z"></path></g><g transform="matrix(1,0,0,1,354.024,-28.8708)"><path d="M205.149,231.047L43.057,231.047C41.211,231.047 39.441,230.314 38.135,229.009C36.83,227.703 36.097,225.933 36.097,224.087L36.097,211.66C36.097,209.804 36.834,208.024 38.146,206.711C39.459,205.399 41.238,204.662 43.094,204.662L56.49,204.662C58.345,204.662 60.124,203.925 61.435,202.613C62.747,201.302 63.484,199.523 63.484,197.668L63.484,143.126C63.484,140.183 65.325,137.555 68.09,136.549C70.855,135.543 73.954,136.375 75.845,138.629L102.037,169.868C104.512,172.819 108.91,173.209 111.865,170.739L124.727,159.988C126.161,158.79 127.056,157.069 127.213,155.208C127.371,153.347 126.778,151.5 125.567,150.078L122.155,146.072C119.797,143.305 119.961,139.19 122.532,136.619L128.586,130.566C130.591,128.56 133.606,127.961 136.226,129.046C138.846,130.131 140.554,132.687 140.554,135.523L140.554,197.861C140.554,199.711 141.289,201.486 142.598,202.794C143.906,204.103 145.681,204.838 147.532,204.838L164.418,204.838C166.274,204.838 168.055,204.101 169.367,202.788C170.68,201.475 171.418,199.695 171.418,197.838L171.418,88.338C171.418,84.492 168.31,81.37 164.464,81.352L136.96,81.222C135.084,81.213 133.283,81.955 131.956,83.281L103.491,111.747C102.095,113.142 100.176,113.886 98.205,113.797C96.233,113.708 94.39,112.793 93.126,111.276L70.165,83.722C68.837,82.129 66.87,81.208 64.797,81.208L43.057,81.208C39.213,81.208 36.097,78.092 36.097,74.248L36.097,61.974C36.097,60.131 36.829,58.363 38.132,57.059C39.436,55.756 41.204,55.023 43.048,55.023L43.773,55.023C43.984,55.007 44.196,54.999 44.41,54.999L205.116,55.017C208.995,55.017 212.14,58.162 212.14,62.041L212.145,166.918C212.145,170.768 209.036,173.896 205.186,173.92L196.285,173.975C192.052,173.975 188.525,177.502 188.525,181.735L188.525,196.902C188.525,201.134 192.052,204.662 196.285,204.662L205.072,204.536C206.938,204.51 208.738,205.232 210.067,206.543C211.396,207.853 212.145,209.642 212.145,211.509L212.145,224.052C212.145,227.915 209.013,231.047 205.149,231.047Z" style="fill:white;"></path></g></g></g></g></svg><style>@media (prefers-color-scheme: light) { :root { filter: none; } }
@media (prefers-color-scheme: dark) { :root { filter: invert(100%); } }
</style></svg>